<svg width="64" height="64" viewBox="0 0 64 64" fill="none" xmlns="http://www.w3.org/2000/svg">
  <rect width="64" height="64" rx="16" fill="#0B0B0B" />
  <path
    d="M18.2 45.5C18.2 33.4 26.9 26.66 35.58 21.12C40.13 18.24 42.94 15.49 43.83 12.72C45.16 8.45 41.57 5 36.72 5C32.59 5 29.29 7.15 27.67 10.21C26.14 13.12 25.43 15.38 24.44 18.34L16 17.02C16.97 11.55 18.86 7.08 21.95 4.3C25.14 1.43 30.23 0 36.58 0C46.44 0 53.12 5.64 53.12 13.71C53.12 20.88 47.51 25.86 39.58 30.81C33.07 34.88 26.94 38.79 26.94 46.41V46.79H48.38V55H18.2V45.5Z"
    fill="#4B52FF"
  />
  <circle cx="46" cy="46" r="10" stroke="#4B52FF" stroke-width="2.5" />
  <circle cx="46" cy="46" r="4" fill="#4B52FF" />
</svg>
